<?xml version="1.0" encoding="UTF-8"?>
<svg width="452px" height="452px" viewBox="0 0 452 452" version="1.1" xmlns="http://www.w3.org/2000/svg" xmlns:xlink="http://www.w3.org/1999/xlink">
    <title>画板</title>
    <g id="画板" stroke="none" stroke-width="1" fill="none" fill-rule="evenodd">
        <g id="编组-16" fill="#FCA506">
            <path d="M226,350 C232.075132,350 237,354.924868 237,361 L237,421 C237,427.075132 232.075132,432 226,432 C219.924868,432 215,427.075132 215,421 L215,361 C215,354.924868 219.924868,350 226,350 Z M262.992541,348.60323 L282.14515,420.081741 C282.716918,422.215605 281.450588,424.408953 279.316723,424.98072 C277.182859,425.552487 274.989511,424.286158 274.417744,422.152293 L255.265134,350.673782 C254.693367,348.539918 255.959697,346.34657 258.093562,345.774802 C260.227426,345.203035 262.420774,346.469365 262.992541,348.60323 Z M193.906438,345.774802 C196.040303,346.34657 197.306633,348.539918 196.734866,350.673782 L177.582256,422.152293 C177.010489,424.286158 174.817141,425.552487 172.683277,424.98072 C170.549412,424.408953 169.283082,422.215605 169.85485,420.081741 L189.007459,348.60323 C189.579226,346.469365 191.772574,345.203035 193.906438,345.774802 Z M164,333.38715 C169.261219,336.424716 171.063846,343.152211 168.026279,348.41343 L138.026279,400.374954 C134.988713,405.636173 128.261219,407.438799 123,404.401233 C117.738781,401.363667 115.936154,394.636173 118.973721,389.374954 L148.973721,337.41343 C152.011287,332.152211 158.738781,330.349584 164,333.38715 Z M303.026279,337.41343 L333.026279,389.374954 C336.063846,394.636173 334.261219,401.363667 329,404.401233 C323.738781,407.438799 317.011287,405.636173 313.973721,400.374954 L283.973721,348.41343 C280.936154,343.152211 282.738781,336.424716 288,333.38715 C293.261219,330.349584 299.988713,332.152211 303.026279,337.41343 Z M138.318759,313.681241 C139.880856,315.243338 139.880856,317.775998 138.318759,319.338095 L85.9928573,371.663997 C84.4307602,373.226094 81.8981002,373.226094 80.3360031,371.663997 C78.7739059,370.1019 78.7739059,367.56924 80.3360031,366.007143 L132.661905,313.681241 C134.224002,312.119144 136.756662,312.119144 138.318759,313.681241 Z M319.338095,313.681241 L371.663997,366.007143 C373.226094,367.56924 373.226094,370.1019 371.663997,371.663997 C370.1019,373.226094 367.56924,373.226094 366.007143,371.663997 L313.681241,319.338095 C312.119144,317.775998 312.119144,315.243338 313.681241,313.681241 C315.243338,312.119144 317.775998,312.119144 319.338095,313.681241 Z M226,116 C286.751322,116 336,165.248678 336,226 C336,286.751322 286.751322,336 226,336 C165.248678,336 116,286.751322 116,226 C116,165.248678 165.248678,116 226,116 Z M118.61285,288 C121.650416,293.261219 119.847789,299.988713 114.58657,303.026279 L62.6250463,333.026279 C57.3638274,336.063846 50.6363329,334.261219 47.5987668,329 C44.5612007,323.738781 46.3638274,317.011287 51.6250463,313.973721 L103.58657,283.973721 C108.847789,280.936154 115.575284,282.738781 118.61285,288 Z M348.41343,283.973721 L400.374954,313.973721 C405.636173,317.011287 407.438799,323.738781 404.401233,329 C401.363667,334.261219 394.636173,336.063846 389.374954,333.026279 L337.41343,303.026279 C332.152211,299.988713 330.349584,293.261219 333.38715,288 C336.424716,282.738781 343.152211,280.936154 348.41343,283.973721 Z M226,138 C177.398942,138 138,177.398942 138,226 C138,274.601058 177.398942,314 226,314 C274.601058,314 314,274.601058 314,226 C314,177.398942 274.601058,138 226,138 Z M226,156 C264.659932,156 296,187.340068 296,226 C296,264.659932 264.659932,296 226,296 C187.340068,296 156,264.659932 156,226 C156,187.340068 187.340068,156 226,156 Z M226,158 C188.444637,158 158,188.444637 158,226 C158,263.555363 188.444637,294 226,294 C263.555363,294 294,263.555363 294,226 C294,188.444637 263.555363,158 226,158 Z M106.225198,258.093562 C106.796965,260.227426 105.530635,262.420774 103.39677,262.992541 L31.9182593,282.14515 C29.7843949,282.716918 27.591047,281.450588 27.0192798,279.316723 C26.4475125,277.182859 27.7138425,274.989511 29.8477069,274.417744 L101.326218,255.265134 C103.460082,254.693367 105.65343,255.959697 106.225198,258.093562 Z M350.673782,255.265134 L422.152293,274.417744 C424.286158,274.989511 425.552487,277.182859 424.98072,279.316723 C424.408953,281.450588 422.215605,282.716918 420.081741,282.14515 L348.60323,262.992541 C346.469365,262.420774 345.203035,260.227426 345.774802,258.093562 C346.34657,255.959697 348.539918,254.693367 350.673782,255.265134 Z M91,215 C97.0751322,215 102,219.924868 102,226 C102,232.075132 97.0751322,237 91,237 L31,237 C24.9248678,237 20,232.075132 20,226 C20,219.924868 24.9248678,215 31,215 L91,215 Z M421,215 C427.075132,215 432,219.924868 432,226 C432,232.075132 427.075132,237 421,237 L361,237 C354.924868,237 350,232.075132 350,226 C350,219.924868 354.924868,215 361,215 Z M31.9182593,169.85485 L103.39677,189.007459 C105.530635,189.579226 106.796965,191.772574 106.225198,193.906438 C105.65343,196.040303 103.460082,197.306633 101.326218,196.734866 L29.8477069,177.582256 C27.7138425,177.010489 26.4475125,174.817141 27.0192798,172.683277 C27.591047,170.549412 29.7843949,169.283082 31.9182593,169.85485 Z M420.081741,169.85485 C422.215605,169.283082 424.408953,170.549412 424.98072,172.683277 C425.552487,174.817141 424.286158,177.010489 422.152293,177.582256 L350.673782,196.734866 C348.539918,197.306633 346.34657,196.040303 345.774802,193.906438 C345.203035,191.772574 346.469365,189.579226 348.60323,189.007459 Z M62.6250463,118.973721 L114.58657,148.973721 C119.847789,152.011287 121.650416,158.738781 118.61285,164 C115.575284,169.261219 108.847789,171.063846 103.58657,168.026279 L51.6250463,138.026279 C46.3638274,134.988713 44.5612007,128.261219 47.5987668,123 C50.6363329,117.738781 57.3638274,115.936154 62.6250463,118.973721 Z M404.401233,123 C407.438799,128.261219 405.636173,134.988713 400.374954,138.026279 L348.41343,168.026279 C343.152211,171.063846 336.424716,169.261219 333.38715,164 C330.349584,158.738781 332.152211,152.011287 337.41343,148.973721 L389.374954,118.973721 C394.636173,115.936154 401.363667,117.738781 404.401233,123 Z M85.9928573,80.3360031 L138.318759,132.661905 C139.880856,134.224002 139.880856,136.756662 138.318759,138.318759 C136.756662,139.880856 134.224002,139.880856 132.661905,138.318759 L80.3360031,85.9928573 C78.7739059,84.4307602 78.7739059,81.8981002 80.3360031,80.3360031 C81.8981002,78.7739059 84.4307602,78.7739059 85.9928573,80.3360031 Z M366.007143,80.3360031 C367.56924,78.7739059 370.1019,78.7739059 371.663997,80.3360031 C373.226094,81.8981002 373.226094,84.4307602 371.663997,85.9928573 L319.338095,138.318759 C317.775998,139.880856 315.243338,139.880856 313.681241,138.318759 C312.119144,136.756662 312.119144,134.224002 313.681241,132.661905 Z M138.026279,51.6250463 L168.026279,103.58657 C171.063846,108.847789 169.261219,115.575284 164,118.61285 C158.738781,121.650416 152.011287,119.847789 148.973721,114.58657 L118.973721,62.6250463 C115.936154,57.3638274 117.738781,50.6363329 123,47.5987668 C128.261219,44.5612007 134.988713,46.3638274 138.026279,51.6250463 Z M329,47.5987668 C334.261219,50.6363329 336.063846,57.3638274 333.026279,62.6250463 L303.026279,114.58657 C299.988713,119.847789 293.261219,121.650416 288,118.61285 C282.738781,115.575284 280.936154,108.847789 283.973721,103.58657 L313.973721,51.6250463 C317.011287,46.3638274 323.738781,44.5612007 329,47.5987668 Z M172.683277,27.0192798 C174.817141,26.4475125 177.010489,27.7138425 177.582256,29.8477069 L196.734866,101.326218 C197.306633,103.460082 196.040303,105.65343 193.906438,106.225198 C191.772574,106.796965 189.579226,105.530635 189.007459,103.39677 L169.85485,31.9182593 C169.283082,29.7843949 170.549412,27.591047 172.683277,27.0192798 Z M274.417744,29.8477069 C274.989511,27.7138425 277.182859,26.4475125 279.316723,27.0192798 C281.450588,27.591047 282.716918,29.7843949 282.14515,31.9182593 L262.992541,103.39677 C262.420774,105.530635 260.227426,106.796965 258.093562,106.225198 C255.959697,105.65343 254.693367,103.460082 255.265134,101.326218 Z M226,20 C232.075132,20 237,24.9248678 237,31 L237,91 C237,97.0751322 232.075132,102 226,102 C219.924868,102 215,97.0751322 215,91 L215,31 C215,24.9248678 219.924868,20 226,20 Z" id="形状结合" fill-rule="nonzero"></path>
            <rect id="矩形" x="214" y="0" width="2" height="452"></rect>
            <rect id="矩形" x="236" y="0" width="2" height="452"></rect>
            <g id="编组-15" transform="translate(226, 226) rotate(90) translate(-226, -226)translate(214, 0)">
                <rect id="矩形" x="0" y="0" width="2" height="452"></rect>
                <rect id="矩形" x="22" y="0" width="2" height="452"></rect>
            </g>
        </g>
    </g>
</svg>